# xmcd
#
# Track frame offsets: 
#        151
#        18582
#        38569
#        57656
#        74567
#        91204
#        109919
#        128890
#        146259
#        163736
#
# Disc length: 2412 seconds
#
# Revision: 0
# Processed by: cddbd v1.5.1PL2 Copyright (c) Steve Scherf et al.
# Submitted via: ExactAudioCopy v0.95b4
#
DISCID=8c096a0a
DTITLE=ร็อคแสลง - ทหารเกณฑ์คนจน
DYEAR=2003
DGENRE=Country
TTITLE0=ทหารเกณฑ์คนจน
TTITLE1=อิจฉากระเทย
TTITLE2=เลหลัง
TTITLE3=บ่ต้องการคนเข้าใจ
TTITLE4=ทั่วทีปทั่วแดน
TTITLE5=สาวเบียร์กระโปรงบาน
TTITLE6=จิ๊กไก่บ้านนอก
TTITLE7=อยู่ดีไม่ว่าดี
TTITLE8=เมียแก่ที่บ้านเก่า
TTITLE9=ผู้ใหญ่บ้านดีเด่น
EXTD=
EXTT0=
EXTT1=
EXTT2=
EXTT3=
EXTT4=
EXTT5=
EXTT6=
EXTT7=
EXTT8=
EXTT9=
PLAYORDER=
